<?xml version="1.0" encoding="UTF-8"?>
<svg id="Layer_1" xmlns="http://www.w3.org/2000/svg" version="1.1" viewBox="0 0 1024 1024">
  <!-- Generator: Adobe Illustrator 29.8.1, SVG Export Plug-In . SVG Version: 2.1.1 Build 2)  -->
  <defs>
    <style>
      .st0 {
        fill: #2675be;
      }

      .st1 {
        fill: #fafaf6;
      }

      .st2 {
        fill: #f7f8f4;
      }
    </style>
  </defs>
  <path class="st1" d="M524.02,370.99l52.61-52.94,2.92.89,45.95,47.03c1.1,0,11.82-13.87,14.97-16.04,1.05-.72,1.08-1.25,2.52-.5,1.23.64,13.04,14.06,13.04,15.06-1.98,5.33-12.37,11.18-14.59,15.51-.4.77-.67,1.23,0,1.98,25.75,26.22,52.27,51.85,77.59,78.48,6.85,7.21,13.13,15.91,19.95,23.05,3.23,3.38,19.82,17.38,19.95,19.9-1.35,6.29-.74,12.61-4.09,18.4-122.78.68-245.59-.3-368.38.12-23.7.08-47.12.88-70.91,0-4.23-.16-22.37,1.01-24.05-.95-1.83-2.14-2.96-15.99-1.94-18.97,38.82-42.02,79.84-82.23,120.43-122.54-1.78-3.25-14.03-11.64-14.02-14,.02-2.9,9.66-10.32,10.15-14.38,1.39-.59,2.34.1,3.44.83,2.37,1.57,12.96,14.03,13.95,14.03l49.82-47.89,50.7,52.9ZM479.87,418.86l31.05-34.22c-6.02-3.44-35.59-40.06-38.29-39.56-2.33.42-33.97,30.96-33.56,33.29l37.91,40.16c.79.58,2.08.8,2.9.34ZM578.98,345.01l-40.91,39.63,33.42,34.43,40.51-39.59-33.02-34.46ZM316,502h80.5c21.39-23.82,45.32-45.41,67.43-68.64-8.42-9.75-16.95-19.62-26.4-28.39-2.06-1.91-11.31-10.82-12.53-11.47-.77-.42-1.52-.67-2.42-.57l-106.58,109.07ZM730.99,500.99l-105.64-106.84c-1.71-.33-3.64,1.82-4.88,2.82-12.17,9.85-22.96,24.78-34.4,35.66,21.08,24.47,45.25,45.98,66.95,69.89,25.85-2.71,51.98-1.11,77.97-1.53ZM523.7,400.11l-98.72,101.41c17.37.1,35.21,1.53,52.56.53,2.49-.14,11.82-1.11,12.95-2.05,1.38-1.15,3.79-6.42,5.53-8.47,12.26-14.43,25.75-27.56,38.49-41.51,6.05-6.62,11.49-13.93,17.35-20.73l-.81-3.84c-8.15-5.94-16.68-19.24-24.51-24.51-1.01-.68-1.45-1.2-2.84-.83ZM626,501l-57.5-56.04c-7.07,6.18-14.23,12.54-21.03,19.01-7.73,7.36-16.97,16.11-23.99,24.01-1.71,1.92-11.02,12.24-9.48,14.01,1.1.39,2.19-1,2.49-1h109.5Z"/>
  <path class="st1" d="M751.79,607.78l-456.85-.22c-6.77-4.36-7.66-15.01-.92-20.04h457.96c9.05,6.95,6.35,12.86-.19,20.27Z"/>
  <path class="st0" d="M296.71,544.21c5.01-1.14,8.65.93,12.8.87,146.46-2.21,293.34-.3,440.05-1.14,7.92,1.99,9.57,10.74,5.27,17.38-3.68,5.69-5.04,2.62-10.28,2.62-109.34.08-218.91.68-328,0-38.01-2.51-80.63,3.49-118.09.09-12.02-1.09-10.32-17.88-1.75-19.83Z"/>
  <path class="st0" d="M555.78,226.28c49.17-5.61,55.76,68.46,9.62,73.61-48.87,5.46-56.03-68.31-9.62-73.61Z"/>
  <path class="st1" d="M731.5,683c14.96,2.11,22.94,20.18,10.5,30.98,12,5.16,9.81,20.83-.65,26.87-1.06.61-8.16,3.15-8.85,3.15h-31c-3.08,0-.52-11.21-.45-13.45.46-15.86-.19-31.75-1.05-47.55,9.79.99,22.04-1.33,31.5,0ZM714,697c-1.78,12.23,2.41,12.43,13.41,10.91,10.62-1.47,6.26-10.91,2.09-10.91h-15.5ZM714,730h18.5c5.19,0,5.19-10,0-10h-18.5v10Z"/>
  <path class="st2" d="M368.76,683.26c26.45-3.8,48.74,25.38,31.22,48.21-22.63,29.48-67.51,5.01-56.01-28.01,3.51-10.07,14.27-18.69,24.79-20.2ZM369.74,698.24c-18.71,3.18-16.13,32.73,4.63,31.69,22.69-1.13,19.15-35.73-4.63-31.69Z"/>
  <path class="st2" d="M529,684c-.33,2.44,1.06,15-1.5,15h-29.5v8h26v14h-26v8h31v15h-45v-61c1.08-.37,2.19,1,2.5,1h42.5Z"/>
  <path class="st2" d="M671,744c-1.35-.9-1.92-10.39-7.44-11.06-2.69-.32-19.15-.38-20.9.22-2.61.9-3.84,8.98-6.65,10.35-3.1,1.5-9.41-.05-13.01.49l24.65-61.08,14.19,1.25,26.16,59.84c-2.78-.59-15.81.79-17,0ZM662,721c-1.48-6.08-3.93-12.88-7.5-17.98-1.16,0-7.79,15.32-7.5,17.98h15Z"/>
  <path class="st2" d="M801.98,702.99c-2.7-.47-4.28-2.86-7.3-4.18-3.46-1.52-15.39-4.16-14.73,2.64.42,4.32,15.71,6.63,20.26,8.83,19.91,9.63,11.19,32.42-8.82,34.6-6.97.76-22.07-2.59-26.46-8.33-3.09-4.04,5.46-8.34,6.09-12.55l1.44.02c3.01,3.03,8.94,6.46,13.14,6.9,3.8.4,11.71-.72,8.91-5.94-2.61-4.85-27.07-3.36-29.42-19.57-3.26-22.46,26.96-29.06,40.84-15.85,5.12,4.87-3.05,7.98-3.95,13.43Z"/>
  <path class="st2" d="M436,727v17c-2.44-.33-15,1.06-15-1.5v-58c0-.35,1.45-1.68,2.26-1.31,14.56,2.65,36.35-4.23,43.77,13.29,9.04,21.35-11.83,33.72-31.02,30.52ZM435,713c25.64,4.24,25.64-19.24,0-15v15Z"/>
  <path class="st2" d="M258.72,724.26c-2.2-2.28-15.37-4.26-20.25-7.24-20.99-12.83-2.13-42.09,24.89-31.89,13.94,5.26,9.68,8.52,2.1,17.87-4.52-3.62-12.94-9.06-18.89-4.92-8.58,5.97,13.71,10.46,16.93,11.91,4.64,2.08,10.14,5.33,11.26,10.74,4.25,20.63-18.42,27.97-34.75,21.76-2.36-.9-11.37-6.08-11.93-8.16-.42-1.6,6.76-10.11,7.53-10.25,2.11-.37,10.03,9.43,20.21,6.25,2.99-.93,5.67-3.18,2.89-6.06Z"/>
  <polygon class="st2" points="306 684 306 729 332 729 332 744 291 744 291 684 306 684"/>
  <path class="st2" d="M586,729h26v15h-40v-61c3.44,2.7,12.62-2.11,13.86,1.65l.14,44.35Z"/>
  <path class="st0" d="M369.7,298.11c1.15-.3,2.03.01,2.84.83l19.38,20.7c.32,1.8-17.96,18.45-20.57,21.29-2.02.35-23.76-20.82-23.36-22.4,5.36-2.13,18.09-19.48,21.7-20.42Z"/>
  <path class="st2" d="M714.76,370.18c4.95-.57,11.35,2.3,14.64,5.92,13.96,15.38-12.36,36.19-25.39,18.39-6.88-9.4-.72-23,10.76-24.31Z"/>
  <path class="st0" d="M694.65,301.35c9.08,9.83.69,20.77-8.34,26.47-6,3.79-6.01,4.3-11.28-1.34-6.27-6.71-8.09-14.21-3.8-22.75,4.18-8.32,17.26-9.05,23.43-2.38Z"/>
  <path class="st2" d="M345.66,376.34c8.2,8.16,2.37,22.76-9.11,23.71-22.4,1.84-19.52-28.34-3.1-28.07,3.42.05,9.76,1.92,12.21,4.37Z"/>
  <path class="st2" d="M463,257v23.5c0,.11-1.39,1.5-1.5,1.5h-21c-.11,0-1.5-1.39-1.5-1.5v-24.5h21.5c.33,0,1.52,1.32,2.5,1Z"/>
  <path class="st2" d="M521.71,633.21c10-2.27,23.04,12.47,11.22,21.23-12.56,9.31-27.49-10.23-14.44-19.44,1.06-.75,1.86-1.48,3.21-1.79Z"/>
  <path class="st0" d="M650.7,440.11c3.38-.89,11.7,10.85,14.26,13.39-3.53,2.39-8.15,11.49-12.5,8.56-1.17-.79-11.14-10.97-11.35-11.76-.55-2.11,8.34-9.86,9.59-10.19Z"/>
</svg>